<svg width="36" height="38" viewBox="0 0 36 38" fill="none" xmlns="http://www.w3.org/2000/svg">
<path d="M27.1994 3.84521C30.0413 3.84521 32.3452 6.14908 32.3452 8.99105V27.1994C32.3452 30.0413 30.0413 32.3452 27.1994 32.3452H8.99105C6.14908 32.3452 3.84521 30.0413 3.84521 27.1994V8.99105C3.84521 6.14908 6.14908 3.84521 8.99105 3.84521H27.1994ZM28.1185 29.8141L18.926 20.8103C18.5062 20.3994 17.8579 20.3619 17.3966 20.6982L17.2643 20.8103L8.07026 29.8136C8.35835 29.915 8.66825 29.9702 8.99105 29.9702H27.1994C27.5216 29.9702 27.831 29.9153 28.1185 29.8141L18.926 20.8103L28.1185 29.8141ZM27.1994 6.22021H8.99105C7.46076 6.22021 6.22021 7.46076 6.22021 8.99105V27.1994C6.22021 27.5293 6.2779 27.8459 6.38371 28.1394L15.6027 19.1133C16.9218 17.8218 18.9938 17.7603 20.3844 18.929L20.5877 19.1135L29.8062 28.141C29.9123 27.847 29.9702 27.53 29.9702 27.1994V8.99105C29.9702 7.46076 28.7297 6.22021 27.1994 6.22021ZM23.2444 9.38688C25.2137 9.38688 26.8102 10.9834 26.8102 12.9527C26.8102 14.9221 25.2137 16.5185 23.2444 16.5185C21.275 16.5185 19.6785 14.9221 19.6785 12.9527C19.6785 10.9834 21.275 9.38688 23.2444 9.38688ZM23.2444 11.7619C22.5867 11.7619 22.0535 12.295 22.0535 12.9527C22.0535 13.6104 22.5867 14.1436 23.2444 14.1436C23.9021 14.1436 24.4352 13.6104 24.4352 12.9527C24.4352 12.295 23.9021 11.7619 23.2444 11.7619Z" fill="black"/>
</svg>
